<svg width="36" height="36" viewBox="0 0 36 36" fill="none" xmlns="http://www.w3.org/2000/svg">
<path d="M31.2188 18C31.2188 17.7762 31.1299 17.5616 30.9716 17.4034C30.8134 17.2451 30.5988 17.1562 30.375 17.1562H18.8438V5.625C18.8438 5.40122 18.7549 5.18661 18.5966 5.02838C18.4384 4.87014 18.2238 4.78125 18 4.78125C17.7762 4.78125 17.5616 4.87014 17.4034 5.02838C17.2451 5.18661 17.1562 5.40122 17.1562 5.625V17.1562H5.625C5.40122 17.1562 5.18661 17.2451 5.02838 17.4034C4.87014 17.5616 4.78125 17.7762 4.78125 18C4.78125 18.2238 4.87014 18.4384 5.02838 18.5966C5.18661 18.7549 5.40122 18.8438 5.625 18.8438H17.1562V30.375C17.1562 30.5988 17.2451 30.8134 17.4034 30.9716C17.5616 31.1299 17.7762 31.2188 18 31.2188C18.2238 31.2188 18.4384 31.1299 18.5966 30.9716C18.7549 30.8134 18.8438 30.5988 18.8438 30.375V18.8438H30.375C30.5988 18.8438 30.8134 18.7549 30.9716 18.5966C31.1299 18.4384 31.2188 18.2238 31.2188 18Z" fill="#1078F1"/>
</svg>
