<svg width="49" height="49" viewBox="0 0 49 49" fill="none" xmlns="http://www.w3.org/2000/svg">
<path d="M38.9756 29.4837V38.5487C38.975 39.8313 38.4653 41.0612 37.5583 41.9682C36.6514 42.8751 35.4215 43.3849 34.1389 43.3854H10.4535C9.81599 43.3852 9.18482 43.2589 8.59626 43.014C8.0077 42.769 7.47334 42.4102 7.02388 41.9581C6.57443 41.506 6.21875 40.9695 5.97727 40.3795C5.7358 39.7895 5.61329 39.1576 5.61678 38.5201V14.8613C5.61299 14.2248 5.73556 13.5939 5.97739 13.0051C6.21921 12.4163 6.57549 11.8814 7.02556 11.4313C7.47564 10.9812 8.01057 10.625 8.59935 10.3831C9.18812 10.1413 9.81904 10.0188 10.4555 10.0225H19.5185" stroke="black" stroke-width="1.5" stroke-linecap="round" stroke-linejoin="round"/>
<path d="M38.9757 18.3649L30.6355 10.0227M13.9551 32.2646V27.8444C13.9592 27.1155 14.2491 26.4152 14.7615 25.8987L34.2227 6.43749C34.4812 6.17687 34.7888 5.97001 35.1276 5.82884C35.4665 5.68767 35.8299 5.61499 36.197 5.61499C36.5641 5.61499 36.9275 5.68767 37.2664 5.82884C37.6052 5.97001 37.9128 6.17687 38.1713 6.43749L42.5629 10.8291C42.824 11.0873 43.0313 11.3948 43.1728 11.7337C43.3143 12.0726 43.3871 12.4362 43.3871 12.8034C43.3871 13.1706 43.3143 13.5342 43.1728 13.8731C43.0313 14.212 42.824 14.5195 42.5629 14.7777L23.1017 34.2389C22.5841 34.7526 21.8853 35.0422 21.156 35.0453H16.7358C15.9983 35.0453 15.291 34.7523 14.7695 34.2309C14.248 33.7094 13.9551 33.0021 13.9551 32.2646Z" stroke="black" stroke-width="1.5" stroke-linecap="round" stroke-linejoin="round"/>
</svg>
