<svg width="48" height="48" viewBox="0 0 48 48" fill="none" xmlns="http://www.w3.org/2000/svg">
<g clip-path="url(#clip0_597_150)">
<path d="M24 0C10.7452 0 0 10.7452 0 24C0 37.2555 10.7452 48 24 48C37.2555 48 48 37.2555 48 24C48 10.7452 37.2555 0 24 0ZM24 45.0472C12.4207 45.0472 3 35.5793 3 23.9999C3 12.4207 12.4207 2.99991 24 2.99991C35.5793 2.99991 45 12.4207 45 23.9999C45 35.5791 35.5793 45.0472 24 45.0472ZM34.5 22.5H25.5V13.5C25.5 12.672 24.828 12 24 12C23.172 12 22.5 12.672 22.5 13.5V22.5H13.5C12.672 22.5 12 23.172 12 24C12 24.828 12.672 25.5 13.5 25.5H22.5V34.5C22.5 35.328 23.172 36 24 36C24.828 36 25.5 35.328 25.5 34.5V25.5H34.5C35.328 25.5 36 24.828 36 24C36 23.172 35.328 22.5 34.5 22.5Z" fill="black"/>
</g>
<defs>
<clipPath id="clip0_597_150">
<rect width="48" height="48" fill="white"/>
</clipPath>
</defs>
</svg>
