<svg width="50" height="52" viewBox="0 0 50 52" fill="none" xmlns="http://www.w3.org/2000/svg">
<path d="M29.9107 41.723H32.5893C32.9445 41.723 33.2851 41.5962 33.5363 41.3705C33.7875 41.1448 33.9286 40.8386 33.9286 40.5194V18.8556C33.9286 18.5364 33.7875 18.2302 33.5363 18.0045C33.2851 17.7788 32.9445 17.652 32.5893 17.652H29.9107C29.5555 17.652 29.2149 17.7788 28.9637 18.0045C28.7125 18.2302 28.5714 18.5364 28.5714 18.8556V40.5194C28.5714 40.8386 28.7125 41.1448 28.9637 41.3705C29.2149 41.5962 29.5555 41.723 29.9107 41.723ZM48.2143 8.02365H39.0167L35.2221 2.33689C34.7459 1.6238 34.0722 1.03374 33.2668 0.624197C32.4613 0.214655 31.5516 -0.000395505 30.6261 5.46055e-07H19.3739C18.4488 -4.90214e-05 17.5395 0.215166 16.7345 0.624691C15.9295 1.03422 15.2562 1.62409 14.7801 2.33689L10.9833 8.02365H1.78571C1.31211 8.02365 0.85791 8.19272 0.523024 8.49366C0.188137 8.79461 0 9.20278 0 9.62838L0 11.2331C0 11.6587 0.188137 12.0669 0.523024 12.3678C0.85791 12.6688 1.31211 12.8378 1.78571 12.8378H3.57143V46.5372C3.57143 47.814 4.13584 49.0385 5.1405 49.9413C6.14516 50.8441 7.50777 51.3513 8.92857 51.3513H41.0714C42.4922 51.3513 43.8548 50.8441 44.8595 49.9413C45.8642 49.0385 46.4286 47.814 46.4286 46.5372V12.8378H48.2143C48.6879 12.8378 49.1421 12.6688 49.477 12.3678C49.8119 12.0669 50 11.6587 50 11.2331V9.62838C50 9.20278 49.8119 8.79461 49.477 8.49366C49.1421 8.19272 48.6879 8.02365 48.2143 8.02365ZM19.1786 5.10605C19.2383 5.01678 19.3227 4.94295 19.4236 4.8918C19.5246 4.84064 19.6386 4.8139 19.7545 4.81419H30.2455C30.3612 4.81407 30.475 4.84089 30.5757 4.89204C30.6765 4.94319 30.7607 5.01692 30.8203 5.10605L32.769 8.02365H17.231L19.1786 5.10605ZM41.0714 46.5372H8.92857V12.8378H41.0714V46.5372ZM17.4107 41.723H20.0893C20.4445 41.723 20.7851 41.5962 21.0363 41.3705C21.2875 41.1448 21.4286 40.8386 21.4286 40.5194V18.8556C21.4286 18.5364 21.2875 18.2302 21.0363 18.0045C20.7851 17.7788 20.4445 17.652 20.0893 17.652H17.4107C17.0555 17.652 16.7149 17.7788 16.4637 18.0045C16.2125 18.2302 16.0714 18.5364 16.0714 18.8556V40.5194C16.0714 40.8386 16.2125 41.1448 16.4637 41.3705C16.7149 41.5962 17.0555 41.723 17.4107 41.723Z" fill="#7D7D7D"/>
</svg>
